<svg width="36" height="36" viewBox="0 0 36 36" fill="none" xmlns="http://www.w3.org/2000/svg">
<g filter="url(#filter0_i_39_14)">
<rect width="36" height="36" rx="2" fill="url(#paint0_linear_39_14)"/>
</g>
<rect x="0.5" y="0.5" width="35" height="35" rx="1.5" stroke="#FF9C0B"/>
<path d="M21 7.784L20.204 8.58C20.0467 8.73733 19.9395 8.93779 19.8961 9.15602C19.8527 9.37424 19.875 9.60044 19.9601 9.80601C20.0453 10.0116 20.1895 10.1873 20.3745 10.3109C20.5595 10.4345 20.777 10.5005 20.9995 10.5005C21.222 10.5005 21.4395 10.4345 21.6245 10.3109C21.8095 10.1873 21.9537 10.0116 22.0389 9.80601C22.124 9.60044 22.1463 9.37424 22.1029 9.15602C22.0595 8.93779 21.9523 8.73733 21.795 8.58L21 7.784ZM18 7.784L17.204 8.58C17.0467 8.73733 16.9395 8.93779 16.8961 9.15602C16.8527 9.37424 16.875 9.60044 16.9601 9.80601C17.0453 10.0116 17.1895 10.1873 17.3745 10.3109C17.5595 10.4345 17.777 10.5005 17.9995 10.5005C18.222 10.5005 18.4395 10.4345 18.6245 10.3109C18.8095 10.1873 18.9537 10.0116 19.0389 9.80601C19.124 9.60044 19.1463 9.37424 19.1029 9.15602C19.0595 8.93779 18.9523 8.73733 18.795 8.58L18 7.784ZM15 7.784L14.204 8.58C14.0467 8.73733 13.9395 8.93779 13.8961 9.15602C13.8527 9.37424 13.875 9.60044 13.9601 9.80601C14.0453 10.0116 14.1895 10.1873 14.3745 10.3109C14.5595 10.4345 14.777 10.5005 14.9995 10.5005C15.222 10.5005 15.4395 10.4345 15.6245 10.3109C15.8095 10.1873 15.9537 10.0116 16.0389 9.80601C16.124 9.60044 16.1463 9.37424 16.1029 9.15602C16.0595 8.93779 15.9523 8.73733 15.795 8.58L15 7.784ZM15.75 13.547C16.248 13.527 16.748 13.512 17.25 13.505V12.75C17.25 12.5511 17.329 12.3603 17.4697 12.2197C17.6103 12.079 17.8011 12 18 12C18.1989 12 18.3897 12.079 18.5303 12.2197C18.671 12.3603 18.75 12.5511 18.75 12.75V13.505C19.252 13.512 19.752 13.526 20.25 13.547V12.75C20.25 12.5511 20.329 12.3603 20.4697 12.2197C20.6103 12.079 20.8011 12 21 12C21.1989 12 21.3897 12.079 21.5303 12.2197C21.671 12.3603 21.75 12.5511 21.75 12.75V13.63L22.057 13.652C23.607 13.769 24.75 15.079 24.75 16.598V17.616C20.2633 17.1261 15.7367 17.1261 11.25 17.616V16.598C11.25 15.079 12.393 13.769 13.943 13.652L14.25 13.63V12.75C14.25 12.5511 14.329 12.3603 14.4697 12.2197C14.6103 12.079 14.8011 12 15 12C15.1989 12 15.3897 12.079 15.5303 12.2197C15.671 12.3603 15.75 12.5511 15.75 12.75V13.547ZM18 18.75C15.528 18.75 13.1 18.934 10.726 19.29C9.272 19.507 8.25 20.772 8.25 22.206V22.59C9.12832 22.4267 10.0359 22.5545 10.835 22.954C11.1967 23.1349 11.5956 23.229 12 23.229C12.4044 23.229 12.8033 23.1349 13.165 22.954C13.7348 22.6692 14.363 22.5209 15 22.5209C15.637 22.5209 16.2652 22.6692 16.835 22.954C17.1967 23.1349 17.5956 23.229 18 23.229C18.4044 23.229 18.8033 23.1349 19.165 22.954C19.7348 22.6692 20.363 22.5209 21 22.5209C21.637 22.5209 22.2652 22.6692 22.835 22.954C23.1967 23.1349 23.5956 23.229 24 23.229C24.4044 23.229 24.8033 23.1349 25.165 22.954C25.9641 22.5545 26.8717 22.4267 27.75 22.59V22.206C27.75 20.772 26.728 19.506 25.274 19.289C22.866 18.9294 20.4347 18.7492 18 18.75ZM27.75 24.131C27.114 23.9398 26.4289 23.9988 25.835 24.296C25.2652 24.5808 24.637 24.7291 24 24.7291C23.363 24.7291 22.7348 24.5808 22.165 24.296C21.8033 24.1151 21.4044 24.0209 21 24.0209C20.5956 24.0209 20.1967 24.1151 19.835 24.296C19.2652 24.5808 18.637 24.7291 18 24.7291C17.363 24.7291 16.7348 24.5808 16.165 24.296C15.8033 24.1151 15.4044 24.0209 15 24.0209C14.5956 24.0209 14.1967 24.1151 13.835 24.296C13.2652 24.5808 12.637 24.7291 12 24.7291C11.363 24.7291 10.7348 24.5808 10.165 24.296C9.57106 23.9988 8.88602 23.9398 8.25 24.131V26.625C8.25 27.661 9.09 28.5 10.125 28.5H25.875C26.91 28.5 27.75 27.66 27.75 26.625V24.131Z" fill="white"/>
<defs>
<filter id="filter0_i_39_14" x="0" y="0" width="36" height="36" filterUnits="userSpaceOnUse" color-interpolation-filters="sRGB">
<feFlood flood-opacity="0" result="BackgroundImageFix"/>
<feBlend mode="normal" in="SourceGraphic" in2="BackgroundImageFix" result="shape"/>
<feColorMatrix in="SourceAlpha" type="matrix" values="0 0 0 0 0 0 0 0 0 0 0 0 0 0 0 0 0 0 127 0" result="hardAlpha"/>
<feOffset dy="2"/>
<feComposite in2="hardAlpha" operator="arithmetic" k2="-1" k3="1"/>
<feColorMatrix type="matrix" values="0 0 0 0 1 0 0 0 0 1 0 0 0 0 1 0 0 0 0.5 0"/>
<feBlend mode="normal" in2="shape" result="effect1_innerShadow_39_14"/>
</filter>
<linearGradient id="paint0_linear_39_14" x1="18" y1="0" x2="18" y2="36" gradientUnits="userSpaceOnUse">
<stop stop-color="#FF9505"/>
<stop offset="1" stop-color="#FFB31F"/>
</linearGradient>
</defs>
</svg>
