<svg width="42" height="44" viewBox="0 0 42 44" fill="none" xmlns="http://www.w3.org/2000/svg">
<path d="M32.4328 14.8216C32.1491 13.4712 30.9547 12.6936 29.7644 13.0849C27.002 13.993 22.4615 15.4856 21.5742 15.7773C20.2811 16.2024 17.3861 12.8412 16.0929 13.2662C15.1228 13.5852 7.17775 16.1969 3.26933 17.4817C2.07905 17.873 1.34426 19.2848 1.62796 20.6352L6.04559 41.6622C6.32929 43.0126 7.52419 43.79 8.71447 43.3988L34.3614 34.9679C35.5517 34.5766 36.2866 33.1647 36.0029 31.8144L32.4328 14.8216Z" fill="#D26500"/>
<path d="M4.94723 26.7636L10.8451 8.6117L37.4178 14.2599L31.5199 32.4118L4.94723 26.7636Z" fill="white" stroke="#E2E5E8"/>
<path d="M12.7891 22.4943C12.1124 22.7142 11.4717 23.1815 10.9706 23.7381C10.4695 24.2947 10.0718 24.9809 9.9239 25.6767L6.76825 40.5229C6.621 41.2157 6.7368 41.8852 7.21003 42.3113C7.68326 42.7374 8.36118 42.7825 9.03476 42.5637L33.7508 34.533C34.4274 34.3131 35.0683 33.8458 35.5695 33.2891C36.0707 32.7325 36.4685 32.0463 36.6164 31.3504L40.5212 12.9796C40.6685 12.2869 40.5527 11.6174 40.0795 11.1913C39.6063 10.7651 38.9284 10.7199 38.2549 10.9388L25.8967 14.9542C25.6585 15.0316 25.4252 15.1828 25.2124 15.3494C24.9932 15.5208 24.7633 15.7345 24.5308 15.969C24.0692 16.4346 23.5644 17.0161 23.0738 17.5811L23.0663 17.5897C22.5671 18.1647 22.0826 18.7223 21.6467 19.1619C21.4293 19.3813 21.2323 19.5626 21.0592 19.698C20.8798 19.8384 20.7553 19.9059 20.682 19.9297L12.7891 22.4943Z" fill="url(#paint0_linear_4_112)" stroke="#F58500"/>
<mask id="mask0_4_112" style="mask-type:alpha" maskUnits="userSpaceOnUse" x="7" y="11" width="34" height="32">
<path d="M10.413 25.7807C10.6637 24.601 11.7965 23.3426 12.9436 22.9699C15.6057 22.1049 19.9814 20.6831 20.8365 20.4053C22.0827 20.0004 24.805 15.8346 26.0512 15.4297C26.9861 15.126 34.6428 12.6381 38.4094 11.4143C39.5564 11.0416 40.2829 11.6959 40.0321 12.8757L36.1273 31.2465C35.8765 32.4262 34.7434 33.6847 33.5963 34.0574L8.88025 42.0882C7.73317 42.4609 7.00656 41.8066 7.25732 40.6269L10.413 25.7807Z" fill="#D9D9D9"/>
</mask>
<g mask="url(#mask0_4_112)">
<path d="M47.8707 22.1163C47.8707 29.1721 40.8798 34.8919 32.2561 34.8919C23.6324 34.8919 16.6415 29.1721 16.6415 22.1163C16.6415 15.0605 23.6324 9.34071 32.2561 9.34071C40.8798 9.34071 47.8707 15.0605 47.8707 22.1163Z" fill="url(#paint1_linear_4_112)"/>
<path fill-rule="evenodd" clip-rule="evenodd" d="M35.7001 31.1557L39.6049 12.7849C39.7112 12.2848 39.5895 12.0106 39.4527 11.8874C39.3158 11.7642 39.0305 11.6718 38.5443 11.8297L26.1862 15.8451C26.1024 15.8724 25.9711 15.9452 25.7896 16.0872C25.6136 16.2249 25.4145 16.4083 25.1961 16.6286C24.7584 17.07 24.2725 17.6294 23.7737 18.2039L23.767 18.2115C23.2758 18.7773 22.7721 19.3574 22.312 19.8215C22.0805 20.055 21.8527 20.2667 21.6364 20.4359C21.4256 20.6008 21.1993 20.7467 20.9715 20.8207L13.0786 23.3853C12.5951 23.5424 12.087 23.8981 11.6668 24.3649C11.2466 24.8317 10.9459 25.3743 10.8402 25.8715L7.68455 40.7177C7.57827 41.2177 7.7 41.4919 7.83685 41.6151C7.97371 41.7384 8.25912 41.8308 8.74528 41.6728L33.4613 33.6421C33.9448 33.485 34.453 33.1292 34.8733 32.6624C35.2936 32.1955 35.5944 31.6529 35.7001 31.1557ZM12.9436 22.9699C11.7965 23.3426 10.6637 24.601 10.413 25.7807L7.25732 40.6269C7.00656 41.8067 7.73317 42.4609 8.88025 42.0882L33.5963 34.0575C34.7434 33.6848 35.8765 32.4262 36.1273 31.2465L40.0321 12.8757C40.2829 11.6959 39.5564 11.0416 38.4094 11.4143L26.0512 15.4298C25.4281 15.6322 24.436 16.7749 23.4439 17.9175C22.4517 19.0602 21.4596 20.2029 20.8365 20.4053L12.9436 22.9699Z" fill="url(#paint2_linear_4_112)" stroke="url(#paint3_linear_4_112)"/>
</g>
<defs>
<linearGradient id="paint0_linear_4_112" x1="33.2388" y1="16.1107" x2="27.8385" y2="44.0154" gradientUnits="userSpaceOnUse">
<stop stop-color="#FFB41F" stop-opacity="0.69"/>
<stop offset="0.520297" stop-color="#FF9505"/>
<stop offset="1" stop-color="#FFB41F" stop-opacity="0.69"/>
</linearGradient>
<linearGradient id="paint1_linear_4_112" x1="39.1596" y1="1.15318" x2="19.921" y2="36.3133" gradientUnits="userSpaceOnUse">
<stop stop-color="white"/>
<stop offset="1" stop-color="white" stop-opacity="0"/>
</linearGradient>
<linearGradient id="paint2_linear_4_112" x1="24.5033" y1="16.3291" x2="21.8827" y2="25.3921" gradientUnits="userSpaceOnUse">
<stop stop-color="white"/>
<stop offset="1" stop-color="white" stop-opacity="0"/>
</linearGradient>
<linearGradient id="paint3_linear_4_112" x1="24.5648" y1="15.7479" x2="25.2282" y2="28.3525" gradientUnits="userSpaceOnUse">
<stop stop-color="white"/>
<stop offset="1" stop-color="white" stop-opacity="0"/>
</linearGradient>
</defs>
</svg>
