<svg width="41" height="35" viewBox="0 0 41 35" fill="none" xmlns="http://www.w3.org/2000/svg">
<g opacity="0.5">
<path d="M31.5481 5.41674C31.2644 4.0664 30.07 3.28879 28.8797 3.68008C26.1173 4.58815 21.5768 6.08075 20.6895 6.37244C19.3964 6.79753 16.5014 3.43632 15.2082 3.86141C14.2381 4.18032 6.29305 6.7921 2.38463 8.07692C1.19434 8.4682 0.45956 9.88001 0.743257 11.2304L5.16089 32.2574C5.44459 33.6077 6.63948 34.3852 7.82977 33.9939L33.4767 25.563C34.667 25.1717 35.4019 23.7599 35.1182 22.4095L31.5481 5.41674Z" fill="#D26500"/>
<path d="M11.9044 13.0895C11.2277 13.3093 10.587 13.7766 10.0859 14.3333C9.58476 14.8899 9.18711 15.576 9.0392 16.2719L5.88355 31.1181C5.73629 31.8108 5.85209 32.4803 6.32532 32.9064C6.79856 33.3325 7.47648 33.3777 8.15005 33.1589L32.8661 25.1281C33.5427 24.9083 34.1836 24.4409 34.6848 23.8843C35.186 23.3277 35.5837 22.6415 35.7317 21.9456L39.6365 3.57477C39.7837 2.88204 39.668 2.21255 39.1948 1.78643C38.7216 1.36028 38.0437 1.31509 37.3701 1.53395L25.012 5.54936C24.7738 5.62676 24.5405 5.77799 24.3277 5.94453C24.1085 6.116 23.8786 6.32971 23.6461 6.56416C23.1845 7.02974 22.6797 7.61123 22.1891 8.17622L22.1816 8.18486C21.6824 8.75982 21.1979 9.31744 20.762 9.7571C20.5445 9.97645 20.3476 10.1578 20.1745 10.2932C19.9951 10.4336 19.8706 10.5011 19.7973 10.5249L11.9044 13.0895Z" fill="url(#paint0_linear_4_155)" stroke="#F58500"/>
<mask id="mask0_4_155" style="mask-type:alpha" maskUnits="userSpaceOnUse" x="6" y="1" width="34" height="32">
<path d="M9.52827 16.3759C9.77904 15.1961 10.9118 13.9377 12.0589 13.565C14.721 12.7 19.0967 11.2783 19.9518 11.0005C21.198 10.5955 23.9203 6.4298 25.1665 6.02489C26.1014 5.72112 33.7581 3.23331 37.5247 2.00948C38.6717 1.63677 39.3982 2.29106 39.1474 3.47082L35.2426 21.8416C34.9918 23.0214 33.8587 24.2799 32.7116 24.6526L7.99555 32.6833C6.84846 33.056 6.12185 32.4018 6.37262 31.222L9.52827 16.3759Z" fill="#D9D9D9"/>
</mask>
<g mask="url(#mask0_4_155)">
<path d="M46.986 12.7115C46.986 19.7672 39.9951 25.4871 31.3714 25.4871C22.7477 25.4871 15.7568 19.7672 15.7568 12.7115C15.7568 5.65571 22.7477 -0.0641174 31.3714 -0.0641174C39.9951 -0.0641174 46.986 5.65571 46.986 12.7115Z" fill="url(#paint1_linear_4_155)"/>
<path fill-rule="evenodd" clip-rule="evenodd" d="M34.8154 21.7508L38.7202 3.38003C38.8265 2.88 38.7048 2.60579 38.5679 2.48256C38.4311 2.35935 38.1458 2.26694 37.6596 2.4249L25.3015 6.44031C25.2177 6.46753 25.0864 6.54034 24.9049 6.68236C24.7289 6.82006 24.5298 7.00344 24.3114 7.22375C23.8737 7.6652 23.3878 8.22455 22.889 8.79905L22.8823 8.80668C22.3911 9.37243 21.8874 9.95261 21.4273 10.4167C21.1958 10.6502 20.9679 10.8618 20.7517 11.031C20.5409 11.1959 20.3146 11.3419 20.0868 11.4159L12.1939 13.9804C11.7104 14.1375 11.2023 14.4933 10.7821 14.9601C10.3619 15.4268 10.0612 15.9694 9.9555 16.4667L6.79985 31.3129C6.69357 31.8129 6.81529 32.0871 6.95215 32.2103C7.089 32.3335 7.37442 32.4259 7.86058 32.268L32.5766 24.2372C33.0601 24.0802 33.5683 23.7243 33.9886 23.2575C34.4089 22.7907 34.7097 22.2481 34.8154 21.7508ZM12.0589 13.565C10.9118 13.9378 9.77904 15.1961 9.52827 16.3759L6.37262 31.2221C6.12185 32.4018 6.84846 33.0561 7.99555 32.6834L32.7116 24.6526C33.8587 24.2799 34.9918 23.0214 35.2426 21.8416L39.1474 3.47084C39.3982 2.29109 38.6717 1.6368 37.5247 2.00951L25.1665 6.02492C24.5434 6.22737 23.5513 7.37003 22.5592 8.5127C21.567 9.65536 20.5749 10.798 19.9518 11.0005L12.0589 13.565Z" fill="url(#paint2_linear_4_155)" stroke="url(#paint3_linear_4_155)"/>
</g>
</g>
<defs>
<linearGradient id="paint0_linear_4_155" x1="32.3541" y1="6.70584" x2="26.9538" y2="34.6105" gradientUnits="userSpaceOnUse">
<stop stop-color="#FFB41F" stop-opacity="0.69"/>
<stop offset="0.520297" stop-color="#FF9505"/>
<stop offset="1" stop-color="#FFB41F" stop-opacity="0.69"/>
</linearGradient>
<linearGradient id="paint1_linear_4_155" x1="38.2749" y1="-8.25165" x2="19.0363" y2="26.9084" gradientUnits="userSpaceOnUse">
<stop stop-color="white"/>
<stop offset="1" stop-color="white" stop-opacity="0"/>
</linearGradient>
<linearGradient id="paint2_linear_4_155" x1="23.6186" y1="6.92425" x2="20.998" y2="15.9873" gradientUnits="userSpaceOnUse">
<stop stop-color="white"/>
<stop offset="1" stop-color="white" stop-opacity="0"/>
</linearGradient>
<linearGradient id="paint3_linear_4_155" x1="23.6801" y1="6.34309" x2="24.3435" y2="18.9477" gradientUnits="userSpaceOnUse">
<stop stop-color="white"/>
<stop offset="1" stop-color="white" stop-opacity="0"/>
</linearGradient>
</defs>
</svg>
