<svg width="36" height="36" viewBox="0 0 36 36" fill="none" xmlns="http://www.w3.org/2000/svg">
<g filter="url(#filter0_i_39_13)">
<rect width="36" height="36" rx="2" fill="url(#paint0_linear_39_13)"/>
</g>
<rect x="0.5" y="0.5" width="35" height="35" rx="1.5" stroke="#FF9C0B"/>
<path fill-rule="evenodd" clip-rule="evenodd" d="M14.25 12.75C14.25 11.7554 14.6451 10.8016 15.3483 10.0983C16.0516 9.39509 17.0054 9 18 9C18.9946 9 19.9484 9.39509 20.6517 10.0983C21.3549 10.8016 21.75 11.7554 21.75 12.75C21.75 13.7446 21.3549 14.6984 20.6517 15.4017C19.9484 16.1049 18.9946 16.5 18 16.5C17.0054 16.5 16.0516 16.1049 15.3483 15.4017C14.6451 14.6984 14.25 13.7446 14.25 12.75ZM21.75 15.75C21.75 14.9544 22.0661 14.1913 22.6287 13.6287C23.1913 13.0661 23.9544 12.75 24.75 12.75C25.5456 12.75 26.3087 13.0661 26.8713 13.6287C27.4339 14.1913 27.75 14.9544 27.75 15.75C27.75 16.5456 27.4339 17.3087 26.8713 17.8713C26.3087 18.4339 25.5456 18.75 24.75 18.75C23.9544 18.75 23.1913 18.4339 22.6287 17.8713C22.0661 17.3087 21.75 16.5456 21.75 15.75ZM8.25 15.75C8.25 14.9544 8.56607 14.1913 9.12868 13.6287C9.69129 13.0661 10.4544 12.75 11.25 12.75C12.0456 12.75 12.8087 13.0661 13.3713 13.6287C13.9339 14.1913 14.25 14.9544 14.25 15.75C14.25 16.5456 13.9339 17.3087 13.3713 17.8713C12.8087 18.4339 12.0456 18.75 11.25 18.75C10.4544 18.75 9.69129 18.4339 9.12868 17.8713C8.56607 17.3087 8.25 16.5456 8.25 15.75ZM12.31 21.117C12.92 20.161 13.7611 19.3743 14.7556 18.8294C15.7502 18.2846 16.866 17.9994 18 18C18.9498 17.9991 19.8891 18.1989 20.7564 18.5862C21.6237 18.9734 22.3994 19.5395 23.0327 20.2474C23.6661 20.9552 24.1428 21.7888 24.4317 22.6936C24.7205 23.5985 24.815 24.5541 24.709 25.498C24.696 25.6153 24.6556 25.7278 24.591 25.8265C24.5263 25.9252 24.4393 26.0073 24.337 26.066C22.4086 27.1725 20.2233 27.7532 18 27.75C15.695 27.75 13.53 27.138 11.663 26.066C11.5607 26.0073 11.4737 25.9252 11.409 25.8265C11.3444 25.7278 11.304 25.6153 11.291 25.498C11.1231 23.9646 11.4825 22.4198 12.31 21.118V21.117Z" fill="white"/>
<path d="M11.082 20.254C10.0958 21.7764 9.63627 23.5803 9.77402 25.389C9.17353 25.298 8.58293 25.1506 8.01002 24.949L7.89502 24.909C7.79242 24.8726 7.70257 24.8072 7.63637 24.7208C7.57017 24.6343 7.53045 24.5305 7.52202 24.422L7.51202 24.301C7.47162 23.799 7.53278 23.2939 7.69182 22.816C7.85087 22.3382 8.10456 21.8972 8.43774 21.5195C8.77093 21.1418 9.17679 20.8351 9.6311 20.6177C10.0854 20.4002 10.5789 20.2766 11.082 20.254ZM26.226 25.389C26.3638 23.5803 25.9043 21.7764 24.918 20.254C25.4212 20.2766 25.9146 20.4002 26.3689 20.6177C26.8233 20.8351 27.2291 21.1418 27.5623 21.5195C27.8955 21.8972 28.1492 22.3382 28.3082 22.816C28.4673 23.2939 28.5284 23.799 28.488 24.301L28.478 24.422C28.4694 24.5304 28.4296 24.6339 28.3634 24.7202C28.2972 24.8064 28.2075 24.8717 28.105 24.908L27.99 24.948C27.423 25.148 26.834 25.297 26.226 25.389Z" fill="white"/>
<defs>
<filter id="filter0_i_39_13" x="0" y="0" width="36" height="36" filterUnits="userSpaceOnUse" color-interpolation-filters="sRGB">
<feFlood flood-opacity="0" result="BackgroundImageFix"/>
<feBlend mode="normal" in="SourceGraphic" in2="BackgroundImageFix" result="shape"/>
<feColorMatrix in="SourceAlpha" type="matrix" values="0 0 0 0 0 0 0 0 0 0 0 0 0 0 0 0 0 0 127 0" result="hardAlpha"/>
<feOffset dy="2"/>
<feComposite in2="hardAlpha" operator="arithmetic" k2="-1" k3="1"/>
<feColorMatrix type="matrix" values="0 0 0 0 1 0 0 0 0 1 0 0 0 0 1 0 0 0 0.5 0"/>
<feBlend mode="normal" in2="shape" result="effect1_innerShadow_39_13"/>
</filter>
<linearGradient id="paint0_linear_39_13" x1="18" y1="0" x2="18" y2="36" gradientUnits="userSpaceOnUse">
<stop stop-color="#FF9505"/>
<stop offset="1" stop-color="#FFB31F"/>
</linearGradient>
</defs>
</svg>
